name rise35.5848peak51.9257fall54.8793.mot
datacolumns 19
datarows 14
range 22.14157600000000 22.16324100000000
endheader
time	ground_force1_vx	ground_force1_vy	ground_force1_vz	ground_force1_px	ground_force1_py	ground_force1_pz	ground_force2_vx	ground_force2_vy	ground_force2_vz	ground_force2_px	ground_force2_py	ground_force2_pz	ground_torque1_x	ground_torque1_y	ground_torque1_z	ground_torque2_x	ground_torque2_y	ground_torque2_z	
22.14157600000000	-8.09055300000000	43.33696100000000	-10.41380600000000	0.31100100000000	0.00000000000000	0.09865200000000	-55.77209100000000	784.31724699999995	-49.39097800000000	0.11356700000000	0.00000000000000	-0.08536800000000	0.00000000000000	-6.48059400000000	0.00000000000000	0.00000000000000	-19.29139100000000	0.00000000000000	
22.14324400000000	-8.87232600000000	50.81469300000000	-11.68009600000000	0.31613200000000	0.00000000000000	0.09931800000000	-56.48630100000000	781.11507500000005	-48.96391900000000	0.11271200000000	0.00000000000000	-0.08525300000000	0.00000000000000	-7.35644500000000	0.00000000000000	0.00000000000000	-19.24624700000000	0.00000000000000	
22.14491500000000	-9.49990500000000	58.39364800000000	-12.82023500000000	0.32082400000000	0.00000000000000	0.09992300000000	-57.21423900000000	777.78826500000002	-48.52174600000000	0.11185400000000	0.00000000000000	-0.08513600000000	0.00000000000000	-8.16956800000000	0.00000000000000	0.00000000000000	-19.20340800000000	0.00000000000000	
22.14658000000000	-9.95084900000000	65.97738099999999	-13.80677400000000	0.32514700000000	0.00000000000000	0.10047700000000	-57.95500000000000	774.33403999999996	-48.06438000000000	0.11099300000000	0.00000000000000	-0.08501500000000	0.00000000000000	-8.90094600000000	0.00000000000000	0.00000000000000	-19.16277600000000	0.00000000000000	
22.14824800000000	-10.21165600000000	73.49308700000000	-14.62179400000000	0.32915600000000	0.00000000000000	0.10098700000000	-58.70756500000000	770.74956399999996	-47.59175100000000	0.11013100000000	0.00000000000000	-0.08489300000000	0.00000000000000	-9.53733400000000	0.00000000000000	0.00000000000000	-19.12423100000000	0.00000000000000	
22.14991400000000	-10.27763700000000	80.89387300000000	-15.25698700000000	0.33289600000000	0.00000000000000	0.10145800000000	-59.47079800000000	767.03195300000004	-47.10380300000000	0.10926900000000	0.00000000000000	-0.08476700000000	0.00000000000000	-10.07148300000000	0.00000000000000	0.00000000000000	-19.08762900000000	0.00000000000000	
22.15157800000000	-10.15209700000000	88.15851200000000	-15.71293900000000	0.33640300000000	0.00000000000000	0.10189600000000	-60.24345000000000	763.17828899999995	-46.60048800000000	0.10840600000000	0.00000000000000	-0.08464000000000	0.00000000000000	-10.50183000000000	0.00000000000000	0.00000000000000	-19.05280500000000	0.00000000000000	
22.15325900000000	-9.84500300000000	95.28913400000000	-15.99781000000000	0.33970700000000	0.00000000000000	0.10230300000000	-61.02415600000000	759.18562999999995	-46.08177600000000	0.10754500000000	0.00000000000000	-0.08450900000000	0.00000000000000	-10.83178000000000	0.00000000000000	0.00000000000000	-19.01957000000000	0.00000000000000	
22.15491000000000	-9.37133700000000	102.30737900000000	-16.12561100000000	0.34283200000000	0.00000000000000	0.10268400000000	-61.81144000000000	755.05102599999998	-45.54765200000000	0.10668600000000	0.00000000000000	-0.08437600000000	0.00000000000000	-11.06869700000000	0.00000000000000	0.00000000000000	-18.98771600000000	0.00000000000000	
22.15657400000000	-8.74932000000000	109.24962100000000	-16.11431200000000	0.34580000000000	0.00000000000000	0.10304000000000	-62.60371600000000	750.77153499999997	-44.99812100000000	0.10582900000000	0.00000000000000	-0.08424000000000	0.00000000000000	-11.22274200000000	0.00000000000000	0.00000000000000	-18.95701100000000	0.00000000000000	
22.15824800000000	-7.99868900000000	116.16181200000000	-15.98394500000000	0.34862700000000	0.00000000000000	0.10337500000000	-63.39929000000000	746.34423600000002	-44.43320500000000	0.10497700000000	0.00000000000000	-0.08410200000000	0.00000000000000	-11.30568900000000	0.00000000000000	0.00000000000000	-18.92720300000000	0.00000000000000	
22.15991300000000	-7.13914200000000	123.09442300000001	-15.75487300000000	0.35132900000000	0.00000000000000	0.10369100000000	-64.19636600000000	741.76624700000002	-43.85295000000000	0.10412900000000	0.00000000000000	-0.08396100000000	0.00000000000000	-11.32980400000000	0.00000000000000	0.00000000000000	-18.89802000000000	0.00000000000000	
22.16157500000000	-6.18906000000000	130.09788699999999	-15.44632700000000	0.35391600000000	0.00000000000000	0.10398800000000	-64.99304800000000	737.03474400000005	-43.25742600000000	0.10328700000000	0.00000000000000	-0.08381700000000	0.00000000000000	-11.30687700000000	0.00000000000000	0.00000000000000	-18.86917200000000	0.00000000000000	
22.16324100000000	-5.16454700000000	137.21879899999999	-15.07528200000000	0.35639900000000	0.00000000000000	0.10426900000000	-65.78734300000001	732.14697600000000	-42.64672900000000	0.10245200000000	0.00000000000000	-0.08367000000000	0.00000000000000	-11.24745900000000	0.00000000000000	0.00000000000000	-18.84034900000000	0.00000000000000	
